<?xml version="1.0" encoding="UTF-8"?>
<!DOCTYPE svg PUBLIC "-//W3C//DTD SVG 1.1//EN" "http://www.w3.org/Graphics/SVG/1.1/DTD/svg11.dtd">
<!-- Creator: CorelDRAW 2021 (64-Bit) -->
<svg xmlns="http://www.w3.org/2000/svg" xml:space="preserve" width="2.7093mm" height="2.7093mm" version="1.1" style="shape-rendering:geometricPrecision; text-rendering:geometricPrecision; image-rendering:optimizeQuality; fill-rule:evenodd; clip-rule:evenodd"
viewBox="0 0 5 5"
 xmlns:xlink="http://www.w3.org/1999/xlink"
 xmlns:xodm="http://www.corel.com/coreldraw/odm/2003">
 <defs>
  <style type="text/css">
   <![CDATA[
    .str0 {stroke:#E16F37;stroke-width:0.16;stroke-miterlimit:22.9256}
    .str1 {stroke:#E16F37;stroke-width:0.16;stroke-linecap:round;stroke-linejoin:round;stroke-miterlimit:22.9256}
    .fil0 {fill:none}
    .fil2 {fill:#ACA77B}
    .fil3 {fill:#474F54}
    .fil1 {fill:#E16F37}
    .fnt0 {font-weight:bold;font-size:0.33px;font-family:'Consolas'}
   ]]>
  </style>
 </defs>
 <g id="Layer_x0020_1">
  <metadata id="CorelCorpID_0Corel-Layer"/>
  <rect class="fil0" x="0" y="0" width="5" height="5"/>
  <path class="fil0 str0" d="M2.64 1.38c-0.06,0.02 -1.3,0.63 -1.43,0.7l-0.36 0.17c-0.05,0.03 -0.05,0.08 -0,0.11 0.12,0.07 0.79,0.42 0.93,0.49l0.71 0.36c0.12,0.06 0.15,0.02 0.26,-0.03 0.35,-0.18 1.53,-0.79 1.85,-0.99 0.04,-0.02 0.07,-0.08 0.02,-0.11l-1.42 -0.53c-0.09,-0.03 -0.17,-0.06 -0.26,-0.1 -0.07,-0.02 -0.21,-0.09 -0.28,-0.07z"/>
  <path class="fil0 str0" d="M1.96 2.99c-0.04,0.1 -0.14,0.47 -0.15,0.58 0.35,0.02 0.39,0.22 0.51,0.52 0.01,0.03 0.03,0.09 0.05,0.1 0.06,-0.07 0.08,-0.14 0.22,-0.28 0.23,-0.24 0.53,-0.41 0.88,-0.26 0.03,0.01 0.06,0.03 0.08,0.04 0.03,0.02 0.05,0.04 0.08,0.05 -0,-0.23 -0.02,-0.48 -0.07,-0.71 -0.01,-0.07 -0.04,-0.15 -0.05,-0.21 -0.05,0.01 -0.69,0.36 -0.76,0.39 -0.21,0.1 -0.17,0.09 -0.42,-0.03 -0.06,-0.03 -0.35,-0.19 -0.39,-0.19z"/>
  <path class="fil1" d="M3.88 2.62c0.04,0.04 0.07,0.08 0.09,0.15 0.04,0.11 -0.01,0.12 -0,0.21 0,0.05 -0.03,0.36 0.03,0.44 0.01,-0.05 -0.01,-0.11 -0.01,-0.16 -0,-0.03 -0.01,-0.05 -0.01,-0.08l0 -0.06c0,-0.02 0,-0.01 0.01,-0.02 0.02,0.05 0.01,0.27 0.05,0.32l-0.03 -0.26c0.03,0.05 0.02,0.19 0.05,0.24 0.01,0.01 0.01,0.01 0.01,0.01 0.01,-0.08 -0.02,-0.14 -0.02,-0.22 0.02,0.05 0.02,0.18 0.05,0.22 0.03,-0.08 -0.04,-0.25 -0.05,-0.32 0.05,0.06 0.03,0.25 0.08,0.3 0.01,-0.07 -0.03,-0.25 -0.05,-0.31 -0.04,-0.1 0.01,-0.08 -0.04,-0.21 -0.04,-0.11 -0.01,-0.12 -0.11,-0.26 -0.02,0.01 -0.02,0.01 -0.05,0.02z"/>
  <line class="fil0 str1" x1="2" y1="2.5" x2="3.35" y2= "1.84" />
  <text x="0.57" y="1.14"  class="fil2 fnt0">console.log</text>
  <text x="0.27" y="1.15"  class="fil3 fnt0">1</text>
 </g>
</svg>
