<?xml version="1.0" encoding="UTF-8"?>
<!DOCTYPE svg PUBLIC "-//W3C//DTD SVG 1.1//EN" "http://www.w3.org/Graphics/SVG/1.1/DTD/svg11.dtd">
<!-- Creator: CorelDRAW 2021 (64-Bit) -->
<svg xmlns="http://www.w3.org/2000/svg" xml:space="preserve" width="21.4038mm" height="16.9162mm" version="1.1" style="shape-rendering:geometricPrecision; text-rendering:geometricPrecision; image-rendering:optimizeQuality; fill-rule:evenodd; clip-rule:evenodd"
viewBox="0 0 627.41 495.86"
 xmlns:xlink="http://www.w3.org/1999/xlink"
 xmlns:xodm="http://www.corel.com/coreldraw/odm/2003">
 <defs>
  <style type="text/css">
   <![CDATA[
    .str0 {stroke:#E16F37;stroke-width:24.82;stroke-miterlimit:22.9256}
    .str1 {stroke:#E16F37;stroke-width:24.82;stroke-linecap:round;stroke-linejoin:round;stroke-miterlimit:22.9256}
    .str2 {stroke:#373435;stroke-width:4.96;stroke-linecap:round;stroke-linejoin:round;stroke-miterlimit:22.9256}
    .fil0 {fill:none}
    .fil2 {fill:#ACA77B}
    .fil3 {fill:#474F54}
    .fil1 {fill:#E16F37}
    .fnt0 {font-weight:bold;font-size:47.15px;font-family:'Consolas'}
   ]]>
  </style>
 </defs>
 <g id="Layer_x0020_1">
  <metadata id="CorelCorpID_0Corel-Layer"/>
  <g id="_2677022943200">
   <path class="fil0 str0" d="M333.57 79.6c-8.86,2.86 -184.63,89.75 -203.06,98.59l-50.44 24.65c-7.22,3.76 -7.17,10.97 -0.68,15.14 16.42,10.54 112.51,59.54 131.38,69.24l100.1 51.09c17.44,8.68 21.57,3.23 36.12,-4.35 49.02,-25.53 217.37,-111.37 261.96,-140.25 5.33,-3.45 9.39,-10.73 2.14,-15.71l-201.71 -75.04c-12.21,-4.47 -24.29,-8.81 -36.83,-13.56 -9.28,-3.52 -29.47,-12.87 -38.97,-9.81z"/>
   <path class="fil0 str0" d="M235.96 307.41c-6.11,13.6 -19.76,66.35 -20.55,82.05 49.08,2.37 54.72,31.85 72.1,73.05 1.64,3.89 4.58,12.1 7.09,14.84 9.17,-10.27 11.83,-19.88 31.45,-39.84 33.07,-33.65 75.33,-57.94 124.98,-36.68 4.06,1.74 8.32,3.9 11.75,5.75 4.4,2.37 7.69,5.15 11.94,7.01 -0.71,-32.21 -3.48,-68.65 -9.45,-100.1 -1.92,-10.14 -5.38,-20.96 -6.99,-30.32 -6.67,1.95 -98.17,50.84 -108.27,55.89 -29.72,14.84 -24.2,13.14 -59.13,-4.35 -8.25,-4.13 -50.03,-26.77 -54.9,-27.3z"/>
   <path class="fil1" d="M507.99 256.33c5.61,5.23 9.49,11.32 12.84,21.21 5.19,15.31 -1.31,16.3 -0.58,30.33 0.34,6.56 -4.13,51.26 4.48,61.88 1.13,-6.81 -1.01,-15.34 -1.85,-22.32 -0.47,-3.9 -0.81,-7.34 -1.08,-11.29l0.04 -9.16c0.7,-2.54 0.35,-1.38 1.14,-2.31 3.05,6.73 0.75,38.43 7.28,45.61l-3.61 -37.49c3.76,7.14 2.85,27.36 7.19,33.64 0.85,1.23 0.74,0.96 1.54,1.74 1.06,-11.77 -2.77,-20.17 -2.98,-31.13 2.71,6.7 2.91,26.1 7.04,30.59 3.77,-10.72 -6.26,-34.84 -7.3,-45.94 7.32,8.68 4.87,35.49 11.17,42.19 0.77,-9.55 -3.72,-34.91 -7.78,-44.42 -5.8,-13.59 1.46,-11.34 -5.47,-29.55 -5.75,-15.09 -1.62,-16.39 -15.5,-36.83 -3.1,1.19 -3.44,1.38 -6.55,3.26z"/>
   <line class="fil0 str1" x1="242.47" y1="238.86" x2="433.99" y2= "145.37" />
  </g>
  <text x="39.32" y="45.82"  class="fil2 fnt0">console.log</text>
  <text x="-2.64" y="48.17"  class="fil3 fnt0">1</text>
  <line class="fil0 str2" x1="329.73" y1="2.48" x2="329.73" y2= "51.68" />
 </g>
</svg>
